
            <svg xmlns="http://www.w3.org/2000/svg">
                <filter id="grayscale">
                    <feColorMatrix type="saturate" values="0"/>
                </filter>
                <g filter="url(#grayscale)">
                    <svg xmlns="http://www.w3.org/2000/svg" viewBox="52.906000000000006 160 484.0539914550781 255"> <svg xmlns="http://www.w3.org/2000/svg" xmlns:xlink="http://www.w3.org/1999/xlink" version="1.1" id="Layer_1" x="122.906" y="230" viewBox="88.01000213623047 62.95199966430664 323.97998046875 374.09600830078125" enable-background="new 0 0 500 500" xml:space="preserve" height="115" width="99.59375" preserveAspectRatio="xMinYMin" style="overflow: visible;"><polygon id="XMLID_00000085957900020265628440000016345624449483203203_" fill="#70EFFC" points="349.177,246.747 349.177,307.263 250,208.88   " style="fill: #70EFFC;"></polygon><polygon id="XMLID_00000085957900020265628440000016345624449483203203_" fill="#4EE1F9" points="411.99,283.007 411.99,343.522 349.177,307.263 349.177,246.747   " style="fill: #4EE1F9;"></polygon><polygon id="XMLID_00000085957900020265628440000016345624449483203203_" fill="#05A7D3" points="411.99,343.522 358.472,374.421 358.464,374.421 250,437.048 250,364.522 295.659,338.161     349.177,307.263   " style="fill: #05A7D3;"></polygon><polygon id="XMLID_00000085957900020265628440000016345624449483203203_" fill="#057EC1" points="250,364.522 250,437.048 150.823,307.263   " style="fill: #057EC1;"></polygon><polygon id="XMLID_00000085957900020265628440000016345624449483203203_" fill="#0462A3" points="150.823,307.263 250,437.048 88.01,343.522   " style="fill: #0462A3;"></polygon><polygon id="XMLID_00000085957900020265628440000016345624449483203203_" fill="#2E97ED" points="411.99,156.478 349.177,192.737 250,62.952   " style="fill: #2E97ED;"></polygon><polygon id="XMLID_00000085957900020265628440000016345624449483203203_" fill="#297ED3" points="250,62.952 349.177,192.737 250,135.478   " style="fill: #297ED3;"></polygon><polygon id="XMLID_00000085957900020265628440000016345624449483203203_" fill="#0E52A5" points="250,62.952 250,135.478 203.229,162.483 150.823,192.737 88.01,156.478 140.416,126.224   " style="fill: #0E52A5;"></polygon><polygon id="XMLID_00000085957900020265628440000016345624449483203203_" fill="#033277" points="150.823,192.737 150.823,254.542 88.01,218.275 88.01,156.478   " style="fill: #033277;"></polygon><polygon id="XMLID_00000085957900020265628440000016345624449483203203_" fill="#021A56" points="150.823,192.737 243.914,297.454 150.823,254.542   " style="fill: #021A56;"></polygon></svg> <svg x="238" y="305.5200002288818" viewBox="0.5 7.059999942779541 217.33999633789062 13.510000228881836" height="13.510000228881836" width="217.33999633789062" style="overflow: visible;"><g fill="#000" style=""><path d="M2.07 20.43L0.50 20.43L5.18 8.05L7.13 8.05L11.79 20.43L10.19 20.43L8.91 17.05L3.35 17.05L2.07 20.43ZM6.08 9.63L3.82 15.70L8.44 15.70L6.17 9.63L6.08 9.63ZM21.42 20.43L19.87 20.43L19.87 8.05L21.42 8.05L21.42 20.43ZM42.32 20.43L40.77 20.43L40.77 8.05L46.19 8.05Q47.38 8.05 48.09 8.34Q48.80 8.64 49.15 9.16Q49.50 9.68 49.63 10.40Q49.75 11.11 49.75 11.95L49.75 11.95Q49.75 12.76 49.64 13.47Q49.52 14.18 49.16 14.72Q48.80 15.26 48.08 15.57Q47.36 15.88 46.15 15.88L46.15 15.88L42.32 15.88L42.32 20.43ZM42.32 9.38L42.32 14.53L45.65 14.53Q46.53 14.53 47.04 14.38Q47.56 14.24 47.81 13.92Q48.06 13.61 48.13 13.12Q48.20 12.64 48.20 11.95L48.20 11.95Q48.20 11.27 48.14 10.78Q48.08 10.30 47.84 9.99Q47.59 9.68 47.08 9.53Q46.57 9.38 45.68 9.38L45.68 9.38L42.32 9.38ZM61.65 20.57L61.65 20.57Q60.52 20.57 59.77 20.44Q59.02 20.30 58.59 20.00Q58.16 19.69 57.95 19.15Q57.74 18.61 57.69 17.79Q57.64 16.97 57.64 15.84L57.64 15.84Q57.64 14.71 57.69 13.89Q57.74 13.07 57.95 12.53Q58.16 11.99 58.59 11.68Q59.02 11.38 59.77 11.24Q60.52 11.11 61.65 11.11L61.65 11.11Q62.80 11.11 63.54 11.24Q64.28 11.38 64.72 11.68Q65.16 11.99 65.37 12.53Q65.57 13.07 65.63 13.89Q65.68 14.71 65.68 15.84L65.68 15.84Q65.68 16.97 65.63 17.79Q65.57 18.61 65.37 19.15Q65.16 19.69 64.72 20.00Q64.28 20.30 63.54 20.44Q62.80 20.57 61.65 20.57ZM61.65 19.33L61.65 19.33Q62.62 19.33 63.14 19.21Q63.67 19.08 63.89 18.72Q64.12 18.36 64.16 17.67Q64.21 16.97 64.21 15.84L64.21 15.84Q64.21 14.71 64.16 14.01Q64.12 13.32 63.89 12.96Q63.67 12.60 63.14 12.47Q62.62 12.35 61.65 12.35L61.65 12.35Q60.70 12.35 60.16 12.47Q59.63 12.60 59.42 12.96Q59.20 13.32 59.15 14.01Q59.09 14.71 59.09 15.84L59.09 15.84Q59.09 16.97 59.15 17.67Q59.20 18.36 59.42 18.72Q59.63 19.08 60.16 19.21Q60.70 19.33 61.65 19.33ZM77.62 20.43L75.92 20.43L72.99 11.25L74.52 11.25L76.75 18.65L76.88 18.65L79.11 11.25L80.50 11.25L82.73 18.65L82.87 18.65L85.09 11.25L86.56 11.25L83.63 20.43L81.94 20.43L79.83 13.66L79.70 13.66L77.62 20.43ZM98.01 20.57L98.01 20.57Q96.89 20.57 96.15 20.43Q95.40 20.29 94.95 19.95Q94.50 19.62 94.27 19.07Q94.03 18.52 93.96 17.73Q93.89 16.94 93.89 15.86L93.89 15.86Q93.89 14.58 94.00 13.67Q94.10 12.76 94.49 12.20Q94.88 11.63 95.71 11.37Q96.53 11.11 97.94 11.11L97.94 11.11Q99 11.11 99.68 11.27Q100.35 11.43 100.75 11.77Q101.14 12.11 101.33 12.68Q101.52 13.25 101.57 14.03Q101.63 14.81 101.63 15.84L101.63 15.84L101.63 16.33L95.35 16.33Q95.35 17.26 95.44 17.86Q95.53 18.45 95.81 18.77Q96.08 19.10 96.69 19.22Q97.29 19.35 98.33 19.35L98.33 19.35Q98.77 19.35 99.29 19.32Q99.81 19.30 100.33 19.24Q100.85 19.19 101.27 19.13L101.27 19.13L101.27 20.32Q100.89 20.39 100.34 20.45Q99.79 20.50 99.19 20.54Q98.59 20.57 98.01 20.57ZM100.55 15.28L100.21 15.59L100.21 15.10Q100.21 14.17 100.10 13.62Q99.99 13.07 99.73 12.79Q99.47 12.51 99.02 12.42Q98.57 12.33 97.90 12.33L97.90 12.33Q97.04 12.33 96.53 12.45Q96.03 12.56 95.78 12.87Q95.53 13.18 95.44 13.75Q95.35 14.33 95.35 15.28L95.35 15.28L100.55 15.28ZM111.56 20.43L110.09 20.43L110.09 11.25L111.40 11.25L111.47 13.01L111.58 13.01Q111.82 12.24 112.25 11.83Q112.68 11.41 113.29 11.26Q113.90 11.11 114.64 11.11L114.64 11.11L114.64 12.55Q113.40 12.55 112.73 12.94Q112.07 13.34 111.82 14.17Q111.56 14.99 111.56 16.25L111.56 16.25L111.56 20.43ZM126.11 20.57L126.11 20.57Q124.99 20.57 124.25 20.43Q123.50 20.29 123.05 19.95Q122.60 19.62 122.36 19.07Q122.13 18.52 122.06 17.73Q121.99 16.94 121.99 15.86L121.99 15.86Q121.99 14.58 122.09 13.67Q122.20 12.76 122.59 12.20Q122.98 11.63 123.80 11.37Q124.63 11.11 126.04 11.11L126.04 11.11Q127.10 11.11 127.77 11.27Q128.45 11.43 128.84 11.77Q129.24 12.11 129.43 12.68Q129.62 13.25 129.67 14.03Q129.73 14.81 129.73 15.84L129.73 15.84L129.73 16.33L123.44 16.33Q123.44 17.26 123.53 17.86Q123.62 18.45 123.90 18.77Q124.18 19.10 124.78 19.22Q125.39 19.35 126.43 19.35L126.43 19.35Q126.86 19.35 127.39 19.32Q127.91 19.30 128.43 19.24Q128.95 19.19 129.37 19.13L129.37 19.13L129.37 20.32Q128.99 20.39 128.44 20.45Q127.89 20.50 127.29 20.54Q126.68 20.57 126.11 20.57ZM128.65 15.28L128.30 15.59L128.30 15.10Q128.30 14.17 128.20 13.62Q128.09 13.07 127.83 12.79Q127.57 12.51 127.12 12.42Q126.67 12.33 126 12.33L126 12.33Q125.14 12.33 124.63 12.45Q124.13 12.56 123.88 12.87Q123.62 13.18 123.53 13.75Q123.44 14.33 123.44 15.28L123.44 15.28L128.65 15.28ZM141.19 20.57L141.19 20.57Q140.20 20.57 139.55 20.36Q138.89 20.14 138.51 19.61Q138.13 19.08 137.97 18.16Q137.81 17.24 137.81 15.86L137.81 15.86Q137.81 14.45 137.96 13.53Q138.11 12.60 138.49 12.08Q138.87 11.56 139.52 11.33Q140.17 11.11 141.16 11.11L141.16 11.11Q141.89 11.11 142.47 11.22Q143.05 11.34 143.47 11.63Q143.89 11.92 144.14 12.42L144.14 12.42L144.23 12.42L144.23 7.06L145.71 7.06L145.71 20.43L144.40 20.43L144.32 19.12L144.22 19.12Q143.96 19.75 143.49 20.06Q143.01 20.38 142.42 20.48Q141.82 20.57 141.19 20.57ZM141.77 19.28L141.77 19.28Q142.69 19.28 143.23 19.03Q143.77 18.77 143.98 18.23L143.98 18.23Q144.16 17.73 144.20 17.14Q144.23 16.54 144.23 15.73L144.23 15.73Q144.23 15.07 144.20 14.52Q144.16 13.97 144 13.55L144 13.55Q143.77 12.94 143.23 12.68Q142.69 12.42 141.73 12.42L141.73 12.42Q140.92 12.42 140.44 12.53Q139.95 12.64 139.70 12.99Q139.45 13.34 139.36 14.01Q139.27 14.69 139.27 15.84L139.27 15.84Q139.27 16.99 139.36 17.68Q139.45 18.36 139.70 18.70Q139.95 19.04 140.44 19.16Q140.94 19.28 141.77 19.28ZM166.36 20.43L164.81 20.43L164.81 8.05L170.23 8.05Q171.41 8.05 172.12 8.34Q172.84 8.64 173.19 9.16Q173.54 9.68 173.66 10.40Q173.79 11.11 173.79 11.95L173.79 11.95Q173.79 12.76 173.67 13.47Q173.56 14.18 173.20 14.72Q172.84 15.26 172.12 15.57Q171.40 15.88 170.19 15.88L170.19 15.88L166.36 15.88L166.36 20.43ZM166.36 9.38L166.36 14.53L169.69 14.53Q170.57 14.53 171.08 14.38Q171.59 14.24 171.85 13.92Q172.10 13.61 172.17 13.12Q172.24 12.64 172.24 11.95L172.24 11.95Q172.24 11.27 172.18 10.78Q172.12 10.30 171.87 9.99Q171.63 9.68 171.12 9.53Q170.60 9.38 169.72 9.38L169.72 9.38L166.36 9.38ZM184.52 20.57L184.52 20.57Q183.51 20.57 182.83 20.34Q182.16 20.11 181.83 19.53Q181.49 18.95 181.49 17.91L181.49 17.91Q181.49 16.87 181.74 16.26Q181.98 15.66 182.59 15.41Q183.20 15.16 184.30 15.16L184.30 15.16Q184.48 15.16 184.87 15.17Q185.26 15.17 185.76 15.18Q186.26 15.19 186.78 15.20Q187.29 15.21 187.72 15.23L187.72 15.23L187.72 14.65Q187.72 13.84 187.62 13.38Q187.52 12.92 187.22 12.70Q186.91 12.47 186.36 12.41Q185.81 12.35 184.91 12.35L184.91 12.35Q184.52 12.35 183.98 12.38Q183.44 12.40 182.92 12.45Q182.41 12.49 182.11 12.55L182.11 12.55L182.11 11.36Q182.79 11.23 183.64 11.17Q184.50 11.11 185.42 11.11L185.42 11.11Q186.39 11.11 187.06 11.22Q187.74 11.34 188.16 11.59Q188.59 11.84 188.80 12.26Q189.02 12.67 189.10 13.27Q189.18 13.86 189.18 14.65L189.18 14.65L189.18 20.43L187.87 20.43L187.81 19.13L187.70 19.13Q187.42 19.76 186.88 20.08Q186.35 20.39 185.72 20.48Q185.09 20.57 184.52 20.57ZM185.06 19.37L185.06 19.37Q185.58 19.37 186.03 19.31Q186.48 19.24 186.82 19.06Q187.16 18.88 187.36 18.52L187.36 18.52Q187.56 18.14 187.64 17.70Q187.72 17.26 187.72 16.67L187.72 16.67L187.72 16.20L184.66 16.20Q183.96 16.20 183.58 16.31Q183.20 16.42 183.07 16.76Q182.93 17.10 182.93 17.78L182.93 17.78Q182.93 18.45 183.10 18.79Q183.26 19.13 183.72 19.25Q184.18 19.37 185.06 19.37ZM200.20 20.43L198.74 20.43L198.74 12.49L196.88 12.49L196.88 11.25L198.74 11.25L198.74 8.59L200.20 8.59L200.20 11.25L202.39 11.25L202.39 12.49L200.20 12.49L200.20 20.43ZM211.64 20.43L210.17 20.43L210.17 7.06L211.64 7.06L211.64 12.46L211.73 12.46Q211.91 12.08 212.26 11.77Q212.60 11.47 213.19 11.30Q213.79 11.12 214.70 11.12L214.70 11.12Q215.71 11.12 216.33 11.33Q216.95 11.54 217.29 11.97Q217.62 12.40 217.73 13.08Q217.84 13.75 217.84 14.69L217.84 14.69L217.84 20.43L216.38 20.43L216.38 15.19Q216.38 14.26 216.30 13.71Q216.22 13.16 215.98 12.88Q215.75 12.60 215.30 12.51Q214.85 12.42 214.11 12.42L214.11 12.42Q213.23 12.42 212.72 12.65Q212.22 12.87 211.99 13.29Q211.75 13.72 211.70 14.32Q211.64 14.92 211.64 15.70L211.64 15.70L211.64 20.43Z" transform="translate(0, 0)"></path></g></svg> <svg x="238" y="262.4799997711182" viewBox="1.440000057220459 18.81999969482422 228.95999145507812 36.040000915527344" height="36.040000915527344" width="228.95999145507812" style="overflow: visible;"><g fill="#021A56" fill-opacity="1" style=""><path d="M10.61 54.86Q8.59 54.86 6.22 54.65Q3.84 54.43 2.02 54.05L2.02 54.05L2.02 48.67Q6.91 49.06 8.78 49.06L8.78 49.06Q10.46 49.06 11.33 48.86Q12.19 48.67 12.62 48.19L12.62 48.19Q13.01 47.81 13.13 47.11Q13.25 46.42 13.25 45.12L13.25 45.12Q13.25 43.34 13.06 42.60Q12.86 41.86 12.26 41.50Q11.66 41.14 10.18 40.85L10.18 40.85L5.66 40.03Q3.26 39.60 2.35 37.39Q1.44 35.18 1.44 31.01L1.44 31.01Q1.44 26.93 2.62 24.77Q3.79 22.61 5.86 21.84Q7.92 21.07 11.09 21.07L11.09 21.07Q13.30 21.07 15.34 21.36Q17.38 21.65 18.67 21.94L18.67 21.94L18.67 27.31Q16.08 26.88 12.86 26.88L12.86 26.88Q11.14 26.88 10.20 27.02Q9.26 27.17 8.83 27.55L8.83 27.55Q8.30 27.94 8.16 28.66Q8.02 29.38 8.02 30.77L8.02 30.77Q8.02 32.26 8.18 32.93Q8.35 33.60 8.78 33.89Q9.22 34.18 10.27 34.37L10.27 34.37L14.50 35.14Q16.18 35.38 17.35 36.17Q18.53 36.96 19.20 38.78L19.20 38.78Q19.87 40.70 19.87 44.21L19.87 44.21Q19.87 48.77 18.77 51.07Q17.66 53.38 15.72 54.12Q13.78 54.86 10.61 54.86L10.61 54.86ZM30.72 54.48L24.53 54.48L24.53 35.18L21.50 35.18L21.50 30.00L24.53 30.00L24.53 22.90L30.72 22.90L30.72 30.00L34.61 30.00L34.61 35.18L30.72 35.18L30.72 54.48ZM45.50 54.86Q41.38 54.86 39.55 53.81Q37.73 52.75 37.20 50.26Q36.67 47.76 36.67 42.24L36.67 42.24Q36.67 36.72 37.20 34.22Q37.73 31.73 39.55 30.67Q41.38 29.62 45.50 29.62L45.50 29.62Q49.63 29.62 51.46 30.67Q53.28 31.73 53.81 34.22Q54.34 36.72 54.34 42.24L54.34 42.24Q54.34 47.76 53.81 50.26Q53.28 52.75 51.46 53.81Q49.63 54.86 45.50 54.86L45.50 54.86ZM45.50 49.68Q46.90 49.68 47.40 49.25Q47.90 48.82 48.02 47.45Q48.14 46.08 48.14 42.24L48.14 42.24Q48.14 38.40 48.02 37.03Q47.90 35.66 47.40 35.23Q46.90 34.80 45.50 34.80L45.50 34.80Q44.11 34.80 43.61 35.23Q43.10 35.66 42.98 37.03Q42.86 38.40 42.86 42.24L42.86 42.24Q42.86 46.08 42.98 47.45Q43.10 48.82 43.61 49.25Q44.11 49.68 45.50 49.68L45.50 49.68ZM71.09 54.14Q68.64 54.86 65.71 54.86L65.71 54.86Q62.16 54.86 60.43 53.52Q58.70 52.18 58.15 49.58Q57.60 46.99 57.60 42.24L57.60 42.24Q57.60 37.49 58.20 34.85Q58.80 32.21 60.53 30.91Q62.26 29.62 65.66 29.62L65.66 29.62Q68.93 29.62 70.94 30.29L70.94 30.29L70.94 35.09Q68.74 34.80 67.44 34.80L67.44 34.80Q65.71 34.80 64.99 35.28Q64.27 35.76 64.03 37.25Q63.79 38.74 63.79 42.24L63.79 42.24Q63.79 45.79 64.06 47.28Q64.32 48.77 65.04 49.22Q65.76 49.68 67.49 49.68L67.49 49.68Q68.69 49.68 71.09 49.39L71.09 49.39L71.09 54.14ZM92.50 54.48L85.97 54.48L82.03 44.93L80.74 44.93L80.74 54.48L74.54 54.48L74.54 18.82L80.74 18.82L80.74 39.70L82.03 39.70L86.11 30.00L92.45 30.00L87.17 41.66L92.50 54.48ZM95.47 54.48L95.47 21.46L106.37 21.46Q109.87 21.46 111.67 22.70Q113.47 23.95 114.10 26.33Q114.72 28.70 114.72 32.64L114.72 32.64Q114.72 36.43 114.14 38.81Q113.57 41.18 111.74 42.55Q109.92 43.92 106.32 43.92L106.32 43.92L102.10 43.92L102.10 54.48L95.47 54.48ZM102.10 38.11L104.69 38.11Q106.32 38.11 106.99 37.73Q107.66 37.34 107.88 36.26Q108.10 35.18 108.10 32.64L108.10 32.64Q108.10 30.10 107.88 29.04Q107.66 27.98 107.02 27.62Q106.37 27.26 104.74 27.26L104.74 27.26L102.10 27.26L102.10 38.11ZM117.98 54.48L117.98 30.00L123.84 30.00L124.03 34.03L124.42 34.03Q125.14 31.54 126.48 30.58Q127.82 29.62 130.08 29.62L130.08 29.62L130.08 36.10Q127.92 36.10 126.65 36.72Q125.38 37.34 124.78 38.93Q124.18 40.51 124.18 43.34L124.18 43.34L124.18 54.48L117.98 54.48ZM149.23 42.29L149.23 44.16L138.34 44.16Q138.34 46.90 138.58 47.95Q138.82 49.01 139.68 49.34Q140.54 49.68 142.80 49.68L142.80 49.68Q144.62 49.68 148.66 49.39L148.66 49.39L148.66 54.14Q147.36 54.43 145.30 54.65Q143.23 54.86 141.36 54.86L141.36 54.86Q137.09 54.86 135.14 53.59Q133.20 52.32 132.67 49.82Q132.14 47.33 132.14 42.29L132.14 42.29Q132.14 37.34 132.67 34.80Q133.20 32.26 135.07 30.94Q136.94 29.62 140.98 29.62L140.98 29.62Q144.91 29.62 146.66 30.84Q148.42 32.06 148.82 34.51Q149.23 36.96 149.23 42.29L149.23 42.29ZM140.93 34.75Q139.73 34.75 139.22 35.09Q138.72 35.42 138.53 36.48Q138.34 37.54 138.34 39.98L138.34 39.98L143.42 39.98Q143.42 37.54 143.23 36.46Q143.04 35.38 142.56 35.06Q142.08 34.75 140.93 34.75L140.93 34.75ZM158.69 54.86Q156.29 54.86 154.99 53.78Q153.70 52.70 153.12 50.02Q152.54 47.33 152.54 42.29L152.54 42.29Q152.54 37.34 153.07 34.66Q153.60 31.97 154.90 30.79Q156.19 29.62 158.59 29.62L158.59 29.62Q160.46 29.62 161.71 30.34Q162.96 31.06 163.58 32.59L163.58 32.59L163.92 32.59L163.92 18.82L170.11 18.82L170.11 54.48L164.26 54.48L164.06 51.60L163.68 51.60Q162.67 54.86 158.69 54.86L158.69 54.86ZM161.38 49.30Q162.38 49.30 162.89 48.96Q163.39 48.62 163.63 47.66L163.63 47.66Q163.92 46.27 163.92 42.24L163.92 42.24Q163.92 38.35 163.73 37.30L163.73 37.30Q163.54 36.05 163.01 35.62Q162.48 35.18 161.38 35.18L161.38 35.18Q160.08 35.18 159.58 35.57Q159.07 35.95 158.90 37.32Q158.74 38.69 158.74 42.24L158.74 42.24Q158.74 45.79 158.90 47.16Q159.07 48.53 159.58 48.91Q160.08 49.30 161.38 49.30L161.38 49.30ZM180.77 24.67L174.48 24.67L174.48 18.82L180.77 18.82L180.77 24.67ZM180.72 54.48L174.53 54.48L174.53 30.00L180.72 30.00L180.72 54.48ZM198.05 54.14Q195.60 54.86 192.67 54.86L192.67 54.86Q189.12 54.86 187.39 53.52Q185.66 52.18 185.11 49.58Q184.56 46.99 184.56 42.24L184.56 42.24Q184.56 37.49 185.16 34.85Q185.76 32.21 187.49 30.91Q189.22 29.62 192.62 29.62L192.62 29.62Q195.89 29.62 197.90 30.29L197.90 30.29L197.90 35.09Q195.70 34.80 194.40 34.80L194.40 34.80Q192.67 34.80 191.95 35.28Q191.23 35.76 190.99 37.25Q190.75 38.74 190.75 42.24L190.75 42.24Q190.75 45.79 191.02 47.28Q191.28 48.77 192 49.22Q192.72 49.68 194.45 49.68L194.45 49.68Q195.65 49.68 198.05 49.39L198.05 49.39L198.05 54.14ZM209.23 54.48L203.04 54.48L203.04 35.18L200.02 35.18L200.02 30.00L203.04 30.00L203.04 22.90L209.23 22.90L209.23 30.00L213.12 30.00L213.12 35.18L209.23 35.18L209.23 54.48ZM222.77 54.86Q221.09 54.86 219.05 54.65Q217.01 54.43 215.57 54.10L215.57 54.10L215.57 49.34Q218.74 49.68 221.04 49.68L221.04 49.68Q222.48 49.68 223.18 49.51Q223.87 49.34 224.14 48.86Q224.40 48.38 224.40 47.38L224.40 47.38Q224.40 46.27 224.28 45.82Q224.16 45.36 223.80 45.19Q223.44 45.02 222.53 44.88L222.53 44.88L218.50 44.21Q216.58 43.92 215.78 42.31Q214.99 40.70 214.99 37.06L214.99 37.06Q214.99 32.93 217.01 31.27Q219.02 29.62 223.01 29.62L223.01 29.62Q224.59 29.62 226.37 29.83Q228.14 30.05 229.25 30.38L229.25 30.38L229.25 35.18Q226.18 34.80 224.16 34.80L224.16 34.80Q222.34 34.80 221.74 35.21Q221.14 35.62 221.14 36.96L221.14 36.96Q221.14 38.02 221.23 38.45Q221.33 38.88 221.64 39.05Q221.95 39.22 222.72 39.31L222.72 39.31L226.22 39.84Q227.57 40.08 228.43 40.63Q229.30 41.18 229.85 42.67Q230.40 44.16 230.40 46.94L230.40 46.94Q230.40 51.46 228.53 53.16Q226.66 54.86 222.77 54.86L222.77 54.86Z" transform="translate(0, 0)"></path></g></svg></svg>
                </g>
            </svg>
        